<svg xmlns="http://www.w3.org/2000/svg" xmlns:xlink="http://www.w3.org/1999/xlink" width="79" height="6519" viewBox="0 0 79 6519" version="1.1">
<defs>
    <path id="card-background" fill="#FFFFFF" stroke="black" stroke-width="1.0" d="M78.25,117.25c0,2.762-2.238,5-5,5h-67.5c-2.761,0-5-2.238-5-5v-111.5c0-2.762,2.239-5,5-5h67.5c2.762,0,5,2.238,5,5V117.25z"/>

    <path id="club-large" fill="#000000" d="M2.159,-0.864c0,0,2.375-1.9,2.375-4.534c0-1.542-1.369-4.102-4.534-4.102s-4.534,2.561-4.534,4.102c0,2.634,2.375,4.534,2.375,4.534c-2.638-2.055-7.341-0.652-7.341,3.455c0,2.056,1.68,4.318,4.318,4.318c3.165,0,4.534-3.455,4.534-3.455s0.402,3.938-1.943,6.046h5.182c-2.345-2.107-1.943-6.046-1.943-6.046s1.369,3.455,4.534,3.455c2.639,0,4.318-2.263,4.318-4.318C9.5,-1.516,4.797,-2.919,2.159,-0.864z"/>
    <path id="club-small" fill="#000000" d="M1.137,-0.455c0,0,1.25-1,1.25-2.386c0-0.812-0.722-2.159-2.387-2.159c-1.666,0-2.386,1.348-2.386,2.159c0,1.386,1.25,2.386,1.25,2.386C-2.525,-1.536,-5,-0.798,-5,1.363c0,1.082,0.884,2.273,2.273,2.273c1.666,0,2.386-1.818,2.386-1.818s0.211,2.072-1.023,3.182h2.727c-1.234-1.109-1.022-3.182-1.022-3.182s0.721,1.818,2.387,1.818c1.389,0,2.272-1.191,2.272-2.273C5,-0.798,2.524,-1.536,1.137,-0.455z"/>

    <path id="diamond-large" fill="#DF0000" d="M 0,-10.5 L -8,0 L 0,10.5 L 8,0 z"/>
    <path id="diamond-small" fill="#DF0000" d="M 0,-5.5 L -4.5,0 L 0,5.5 L 4.5,0 z"/>

    <path id="heart-large" fill="#DF0000" d="M3.676,-9c-3.243,0-3.676,3.477-3.676,3.477S-0.433,-9,-3.676,-9C-5.946,-9,-8,-7.441,-8,-4.5c0,3.886,7.191,10.689,8,13.5c0.813-2.814,8-9.614,8-13.5C8,-7.441,5.946,-9,3.676,-9z"/>
    <path id="heart-small" fill="#DF0000" d="M2.067,-5c-1.824,0-2.067,1.932-2.067,1.932S-0.243,-5,-2.067,-5c-1.277,0-2.433,0.866-2.433,2.5c0,2.159,4.045,5.938,4.5,7.5c0.458-1.563,4.5-5.341,4.5-7.5C4.5,-4.134,3.345,-5,2.067,-5z"/>

    <path id="spade-large" fill="#000000" d="M7.989,3.103c-0.242-4.057-7.747-11.693-7.989-13.603c-0.242,1.909-7.747,9.545-7.989,13.603c-0.169,2.868,1.695,4.057,3.39,4.057c2.421,0,3.147-2.625,3.389-3.341c0-0.239,0.484-0.239,0.484,0c0.242,0.716-1.603,6.682-2.179,6.682h5.811c-0.576,0-2.421-5.966-2.179-6.682c0-0.239,0.485-0.239,0.485,0c0.242,0.716,0.968,3.341,3.389,3.341C6.295,7.159,8.158,5.971,7.989,3.103z"/>
    <path id="spade-small" fill="#000000" d="M4.494,1.625C4.357,-0.5,0.136,-4.5,0,-5.5c-0.136,1-4.358,5-4.494,7.125c-0.095,1.503,0.954,2.125,1.907,2.125c1.362,0,1.771-1.375,1.907-1.75c0-0.125,0.272-0.125,0.272,0c0.136,0.375-0.902,3.5-1.226,3.5h3.268c-0.323,0-1.361-3.125-1.226-3.5c0-0.125,0.273-0.125,0.273,0c0.136,0.375,0.544,1.75,1.906,1.75C3.541,3.75,4.589,3.128,4.494,1.625z"/>

    <g id="num-13" fill="none" stroke-width="1.5">
        <line x1="3" y1="5.25" x2="7" y2="5.25"/>
        <line x1="8" y1="5.25" x2="12" y2="5.25"/>
        <line x1="3" y1="17.75" x2="7" y2="17.75"/>
        <line x1="8" y1="17.75" x2="12" y2="17.75"/>
        <line x1="10.75" y1="5" x2="4.75" y2="13.25"/>
        <line x1="10.75" y1="18" x2="7" y2="10.25"/>
        <line x1="4.75" y1="4.5" x2="4.75" y2="18.5"/>
    </g>
    <g id="num-12" fill="none" stroke-width="1.5">
        <path d="M3,12.5c6,0,5,5,9,5"/>
        <path d="M10.25,11.5c0-3.45,0-6.25-2.75-6.25s-2.75,2.8-2.75,6.25s0,6.25,2.75,6.25S10.25,14.95,10.25,11.5z"/>
    </g>
    <g id="num-11" fill="none" stroke-width="1.5">
        <path d="M3.75,14.75V15c0,0-0.25,2.75,3,2.75s3-2.75,3-2.75V6"/>
        <line x1="12" y1="5.25" x2="7.5" y2="5.25"/>
    </g>
    <g id="num-10" fill="none" stroke-width="1.5">
        <path d="M11.25,15.6c0,1.19-1.01,2.15-2.25,2.15l0,0c-1.24,0-2.25-0.96-2.25-2.15V7.4c0-1.19,1.01-2.15,2.25-2.15l0,0c1.24,0,2.25,0.96,2.25,2.15V15.6z"/>
        <line x1="3.75" y1="4.75" x2="3.75" y2="18.25"/>
    </g>
    <g id="num-9" fill="none" stroke-width="1.5">
        <path d="M10.75,9v5.5c0,0,0.25,3.25-3.23,3.25c-1.08,0-2.8-0.5-3.02-2.25"/>
        <circle cx="7.5" cy="9" r="3.25"/>
    </g>
    <g id="num-8" fill="none" stroke-width="1.5">
        <circle cx="7.5" cy="14.25" r="3.5"/>
        <circle cx="7.5" cy="7.75" r="3"/>
    </g>
    <g id="num-7" fill="none" stroke-width="1.5">
        <path d="M3.75,7.5V5.25h6.5L11,6c-2.25,2.75-4.25,7.75-4.25,12.5"/>
    </g>
    <g id="num-6" fill="none" stroke-width="1.5">
        <circle cx="7.5" cy="14" r="3.25"/>
        <path d="M4.25,14V8.5c0,0-0.25-3.25,3.23-3.25c1.08,0,2.8,0.5,3.02,2.25"/>
    </g>
    <g id="num-5" fill="none" stroke-width="1.5">
        <path d="M11.25,5.25h-7v5.25l0.7,0.25c0,0,0.47-1.5,2.8-1.5s3.27,2.25,3.27,4.5s-1.4,4-3.5,4s-3.03-1.5-3.27-2.25"/>
    </g>
    <g id="num-4" fill="none" stroke-width="1.5">
        <line x1="8" y1="17.75" x2="12" y2="17.75"/>
        <polyline points="10,17.75 10,5.25 9.25,5.25 3.75,14.25 3.75,14.75 12,14.75 "/>
    </g>
    <g id="num-3" fill="none" stroke-width="1.5">
        <path d="M3.75,7.5V5.25h6.75V6l-5,5.25c0,0,1-0.5,2.5-0.5s3.25,1.25,3.25,3.25s-1.5,3.75-3.75,3.75c-1.75,0-3.25-1-3.75-2.5"/>
    </g>
    <g id="num-2" fill="none" stroke-width="1.5">
        <path d="M11.25,15.5v2.25h-7.5V16.5c0-3.25,7.5-3.75,7.5-7.75c0-2.75-1.25-3.5-3.75-3.5s-3.75,1.5-3.75,3"/>
    </g>
    <g id="num-1" fill="none" stroke-width="1.5">
        <line x1="3" y1="17.75" x2="6.5" y2="17.75"/>
        <line x1="12" y1="17.75" x2="8.5" y2="17.75"/>
        <polyline points="4.5,17.75 7.5,4.5 10.5,17.75 "/>
        <line x1="5.25" y1="14.5" x2="9.75" y2="14.5"/>
    </g>

    <image id="im-club-11"    width="98" height="194" transform="matrix(0.5 0 0 0.5 0 0)" xlink:href="dondorf-clubs11.png"/>
    <image id="im-diamond-11" width="98" height="194" transform="matrix(0.5 0 0 0.5 0 0)" xlink:href="dondorf-diamonds11.png"/>
    <image id="im-heart-11"   width="98" height="194" transform="matrix(0.5 0 0 0.5 0 0)" xlink:href="dondorf-hearts11.png"/>
    <image id="im-spade-11"   width="98" height="194" transform="matrix(0.5 0 0 0.5 0 0)" xlink:href="dondorf-spades11.png"/>
    <image id="im-club-12"    width="98" height="194" transform="matrix(0.5 0 0 0.5 0 0)" xlink:href="dondorf-clubs12.png"/>
    <image id="im-diamond-12" width="98" height="194" transform="matrix(0.5 0 0 0.5 0 0)" xlink:href="dondorf-diamonds12.png"/>
    <image id="im-heart-12"   width="98" height="194" transform="matrix(0.5 0 0 0.5 0 0)" xlink:href="dondorf-hearts12.png"/>
    <image id="im-spade-12"   width="98" height="194" transform="matrix(0.5 0 0 0.5 0 0)" xlink:href="dondorf-spades12.png"/>
    <image id="im-club-13"    width="98" height="194" transform="matrix(0.5 0 0 0.5 0 0)" xlink:href="dondorf-club13.png"/>
    <image id="im-diamond-13" width="98" height="194" transform="matrix(0.5 0 0 0.5 0 0)" xlink:href="dondorf-diamond13.png"/>
    <image id="im-heart-13"   width="98" height="194" transform="matrix(0.5 0 0 0.5 0 0)" xlink:href="dondorf-hearts13.png"/>
    <image id="im-spade-13"   width="98" height="194" transform="matrix(0.5 0 0 0.5 0 0)" xlink:href="dondorf-spades13.png"/>

    <image id="im-card-back" width="134" height="220" transform="matrix(.5 0 0 .5 0 0)" xlink:href="dondorf-card-back.png"/>

</defs>
<g transform="translate(0, 0)">
    <use xlink:href="#card-background"/>
    <use xlink:href="#num-1" stroke="black" x="1" y="-.5"/>
    <use xlink:href="#num-1" stroke="black" x="63" y="100.5"/>
    <use xlink:href="#spade-small" transform="translate(8.5,24.5)"/>
    <use xlink:href="#spade-small" transform="translate(70.5,98.5)"/>
    <use transform="translate(39.5,61.5)" xlink:href="#spade-large"/>
</g>
<g transform="translate(0, 123)">
    <use xlink:href="#card-background"/>
    <use xlink:href="#num-2" stroke="black" x="1" y="-.5"/>
    <use xlink:href="#num-2" stroke="black" x="63" y="100.5"/>
    <use xlink:href="#spade-small" transform="translate(8.5,24.5)"/>
    <use xlink:href="#spade-small" transform="translate(70.5,98.5)"/>
    <use transform="translate(39.5,21.5)" xlink:href="#spade-large"/>
    <use transform="translate(39.5,101.5)" xlink:href="#spade-large"/>
</g>
<g transform="translate(0, 246)">
    <use xlink:href="#card-background"/>
    <use xlink:href="#num-3" stroke="black" x="1" y="-.5"/>
    <use xlink:href="#num-3" stroke="black" x="63" y="100.5"/>
    <use xlink:href="#spade-small" transform="translate(8.5,24.5)"/>
    <use xlink:href="#spade-small" transform="translate(70.5,98.5)"/>
    <use transform="translate(39.5,61.5)" xlink:href="#spade-large"/>
    <use transform="translate(39.5,21.5)" xlink:href="#spade-large"/>
    <use transform="translate(39.5,101.5)" xlink:href="#spade-large"/>
</g>
<g transform="translate(0, 369)">
    <use xlink:href="#card-background"/>
    <use xlink:href="#num-4" stroke="black" x="1" y="-.5"/>
    <use xlink:href="#num-4" stroke="black" x="63" y="100.5"/>
    <use xlink:href="#spade-small" transform="translate(8.5,24.5)"/>
    <use xlink:href="#spade-small" transform="translate(70.5,98.5)"/>
    <use transform="translate(23.5,21.5)" xlink:href="#spade-large"/>
    <use transform="translate(23.5,101.5)" xlink:href="#spade-large"/>
    <use transform="translate(55.5,21.5)" xlink:href="#spade-large"/>
    <use transform="translate(55.5,101.5)" xlink:href="#spade-large"/>
</g>
<g transform="translate(0, 492)">
    <use xlink:href="#card-background"/>
    <use xlink:href="#num-5" stroke="black" x="1" y="-.5"/>
    <use xlink:href="#num-5" stroke="black" x="63" y="100.5"/>
    <use xlink:href="#spade-small" transform="translate(8.5,24.5)"/>
    <use xlink:href="#spade-small" transform="translate(70.5,98.5)"/>
    <use transform="translate(39.5,61.5)" xlink:href="#spade-large"/>
    <use transform="translate(23.5,21.5)" xlink:href="#spade-large"/>
    <use transform="translate(23.5,101.5)" xlink:href="#spade-large"/>
    <use transform="translate(55.5,21.5)" xlink:href="#spade-large"/>
    <use transform="translate(55.5,101.5)" xlink:href="#spade-large"/>
</g>
<g transform="translate(0, 615)">
    <use xlink:href="#card-background"/>
    <use xlink:href="#num-6" stroke="black" x="1" y="-.5"/>
    <use xlink:href="#num-6" stroke="black" x="63" y="100.5"/>
    <use xlink:href="#spade-small" transform="translate(8.5,24.5)"/>
    <use xlink:href="#spade-small" transform="translate(70.5,98.5)"/>
    <use transform="translate(23.5,21.5)" xlink:href="#spade-large"/>
    <use transform="translate(23.5,101.5)" xlink:href="#spade-large"/>
    <use transform="translate(55.5,21.5)" xlink:href="#spade-large"/>
    <use transform="translate(55.5,101.5)" xlink:href="#spade-large"/>
    <use transform="translate(23.5,61.5)" xlink:href="#spade-large"/>
    <use transform="translate(55.5,61.5)" xlink:href="#spade-large"/>
</g>
<g transform="translate(0, 738)">
    <use xlink:href="#card-background"/>
    <use xlink:href="#num-7" stroke="black" x="1" y="-.5"/>
    <use xlink:href="#num-7" stroke="black" x="63" y="100.5"/>
    <use xlink:href="#spade-small" transform="translate(8.5,24.5)"/>
    <use xlink:href="#spade-small" transform="translate(70.5,98.5)"/>
    <use transform="translate(23.5,21.5)" xlink:href="#spade-large"/>
    <use transform="translate(23.5,101.5)" xlink:href="#spade-large"/>
    <use transform="translate(55.5,21.5)" xlink:href="#spade-large"/>
    <use transform="translate(55.5,101.5)" xlink:href="#spade-large"/>
    <use transform="translate(23.5,61.5)" xlink:href="#spade-large"/>
    <use transform="translate(55.5,61.5)" xlink:href="#spade-large"/>
    <use transform="translate(39.5,41.5)" xlink:href="#spade-large"/>
</g>
<g transform="translate(0, 861)">
    <use xlink:href="#card-background"/>
    <use xlink:href="#num-8" stroke="black" x="1" y="-.5"/>
    <use xlink:href="#num-8" stroke="black" x="63" y="100.5"/>
    <use xlink:href="#spade-small" transform="translate(8.5,24.5)"/>
    <use xlink:href="#spade-small" transform="translate(70.5,98.5)"/>
    <use transform="translate(23.5,21.5)" xlink:href="#spade-large"/>
    <use transform="translate(23.5,101.5)" xlink:href="#spade-large"/>
    <use transform="translate(55.5,21.5)" xlink:href="#spade-large"/>
    <use transform="translate(55.5,101.5)" xlink:href="#spade-large"/>
    <use transform="translate(23.5,61.5)" xlink:href="#spade-large"/>
    <use transform="translate(55.5,61.5)" xlink:href="#spade-large"/>
    <use transform="translate(39.5,41.5)" xlink:href="#spade-large"/>
    <use transform="translate(39.5,81.5)" xlink:href="#spade-large"/>
</g>
<g transform="translate(0, 984)">
    <use xlink:href="#card-background"/>
    <use xlink:href="#num-9" stroke="black" x="1" y="-.5"/>
    <use xlink:href="#num-9" stroke="black" x="63" y="100.5"/>
    <use xlink:href="#spade-small" transform="translate(8.5,24.5)"/>
    <use xlink:href="#spade-small" transform="translate(70.5,98.5)"/>
    <use transform="translate(39.5,61.5)" xlink:href="#spade-large"/>
    <use transform="translate(23.5,21.5)" xlink:href="#spade-large"/>
    <use transform="translate(23.5,101.5)" xlink:href="#spade-large"/>
    <use transform="translate(55.5,21.5)" xlink:href="#spade-large"/>
    <use transform="translate(55.5,101.5)" xlink:href="#spade-large"/>
    <use transform="translate(23.5,48.25)" xlink:href="#spade-large"/>
    <use transform="translate(23.5,74.75)" xlink:href="#spade-large"/>
    <use transform="translate(55.5,48.25)" xlink:href="#spade-large"/>
    <use transform="translate(55.5,74.75)" xlink:href="#spade-large"/>
</g>
<g transform="translate(0, 1107)">
    <use xlink:href="#card-background"/>
    <use xlink:href="#num-10" stroke="black" x="1" y="-.5"/>
    <use xlink:href="#num-10" stroke="black" x="63" y="100.5"/>
    <use xlink:href="#spade-small" transform="translate(8.5,24.5)"/>
    <use xlink:href="#spade-small" transform="translate(70.5,98.5)"/>
    <use transform="translate(23.5,21.5)" xlink:href="#spade-large"/>
    <use transform="translate(23.5,101.5)" xlink:href="#spade-large"/>
    <use transform="translate(55.5,21.5)" xlink:href="#spade-large"/>
    <use transform="translate(55.5,101.5)" xlink:href="#spade-large"/>
    <use transform="translate(23.5,48.25)" xlink:href="#spade-large"/>
    <use transform="translate(23.5,74.75)" xlink:href="#spade-large"/>
    <use transform="translate(55.5,48.25)" xlink:href="#spade-large"/>
    <use transform="translate(55.5,74.75)" xlink:href="#spade-large"/>
    <use transform="translate(39.5,34.875)" xlink:href="#spade-large"/>
    <use transform="translate(39.5,88.125)" xlink:href="#spade-large"/>
</g>
<g transform="translate(0, 1230)">
    <use xlink:href="#card-background"/>
    <use xlink:href="#num-11" stroke="black" x="1" y="-.5"/>
    <use xlink:href="#num-11" stroke="black" x="63" y="100.5"/>
    <use xlink:href="#spade-small" transform="translate(8.5,24.5)"/>
    <use xlink:href="#spade-small" transform="translate(70.5,98.5)"/>
    <use xlink:href="#im-spade-11" x="15" y="13"/>
    <rect x="15.5" y="13.5" width="48" height="96" stroke-width="1" stroke="black" fill="none"/>
</g>
<g transform="translate(0, 1353)">
    <use xlink:href="#card-background"/>
    <use xlink:href="#num-12" stroke="black" x="1" y="-.5"/>
    <use xlink:href="#num-12" stroke="black" x="63" y="100.5"/>
    <use xlink:href="#spade-small" transform="translate(8.5,24.5)"/>
    <use xlink:href="#spade-small" transform="translate(70.5,98.5)"/>
    <use xlink:href="#im-spade-12" x="15" y="13"/>
    <rect x="15.5" y="13.5" width="48" height="96" stroke-width="1" stroke="black" fill="none"/>
</g>
<g transform="translate(0, 1476)">
    <use xlink:href="#card-background"/>
    <use xlink:href="#num-13" stroke="black" x="1" y="-.5"/>
    <use xlink:href="#num-13" stroke="black" x="63" y="100.5"/>
    <use xlink:href="#spade-small" transform="translate(8.5,24.5)"/>
    <use xlink:href="#spade-small" transform="translate(70.5,98.5)"/>
    <use xlink:href="#im-spade-13" x="15" y="13"/>
    <rect x="15.5" y="13.5" width="48" height="96" stroke-width="1" stroke="black" fill="none"/>
</g>
<g transform="translate(0, 1599)">
    <use xlink:href="#card-background"/>
    <use xlink:href="#num-1" stroke="#DF0000" x="1" y="-.5"/>
    <use xlink:href="#num-1" stroke="#DF0000" x="63" y="100.5"/>
    <use xlink:href="#heart-small" transform="translate(8.5,24.5)"/>
    <use xlink:href="#heart-small" transform="translate(70.5,98.5)"/>
    <use transform="translate(39.5,61.5)" xlink:href="#heart-large"/>
</g>
<g transform="translate(0, 1722)">
    <use xlink:href="#card-background"/>
    <use xlink:href="#num-2" stroke="#DF0000" x="1" y="-.5"/>
    <use xlink:href="#num-2" stroke="#DF0000" x="63" y="100.5"/>
    <use xlink:href="#heart-small" transform="translate(8.5,24.5)"/>
    <use xlink:href="#heart-small" transform="translate(70.5,98.5)"/>
    <use transform="translate(39.5,21.5)" xlink:href="#heart-large"/>
    <use transform="translate(39.5,101.5)" xlink:href="#heart-large"/>
</g>
<g transform="translate(0, 1845)">
    <use xlink:href="#card-background"/>
    <use xlink:href="#num-3" stroke="#DF0000" x="1" y="-.5"/>
    <use xlink:href="#num-3" stroke="#DF0000" x="63" y="100.5"/>
    <use xlink:href="#heart-small" transform="translate(8.5,24.5)"/>
    <use xlink:href="#heart-small" transform="translate(70.5,98.5)"/>
    <use transform="translate(39.5,61.5)" xlink:href="#heart-large"/>
    <use transform="translate(39.5,21.5)" xlink:href="#heart-large"/>
    <use transform="translate(39.5,101.5)" xlink:href="#heart-large"/>
</g>
<g transform="translate(0, 1968)">
    <use xlink:href="#card-background"/>
    <use xlink:href="#num-4" stroke="#DF0000" x="1" y="-.5"/>
    <use xlink:href="#num-4" stroke="#DF0000" x="63" y="100.5"/>
    <use xlink:href="#heart-small" transform="translate(8.5,24.5)"/>
    <use xlink:href="#heart-small" transform="translate(70.5,98.5)"/>
    <use transform="translate(23.5,21.5)" xlink:href="#heart-large"/>
    <use transform="translate(23.5,101.5)" xlink:href="#heart-large"/>
    <use transform="translate(55.5,21.5)" xlink:href="#heart-large"/>
    <use transform="translate(55.5,101.5)" xlink:href="#heart-large"/>
</g>
<g transform="translate(0, 2091)">
    <use xlink:href="#card-background"/>
    <use xlink:href="#num-5" stroke="#DF0000" x="1" y="-.5"/>
    <use xlink:href="#num-5" stroke="#DF0000" x="63" y="100.5"/>
    <use xlink:href="#heart-small" transform="translate(8.5,24.5)"/>
    <use xlink:href="#heart-small" transform="translate(70.5,98.5)"/>
    <use transform="translate(39.5,61.5)" xlink:href="#heart-large"/>
    <use transform="translate(23.5,21.5)" xlink:href="#heart-large"/>
    <use transform="translate(23.5,101.5)" xlink:href="#heart-large"/>
    <use transform="translate(55.5,21.5)" xlink:href="#heart-large"/>
    <use transform="translate(55.5,101.5)" xlink:href="#heart-large"/>
</g>
<g transform="translate(0, 2214)">
    <use xlink:href="#card-background"/>
    <use xlink:href="#num-6" stroke="#DF0000" x="1" y="-.5"/>
    <use xlink:href="#num-6" stroke="#DF0000" x="63" y="100.5"/>
    <use xlink:href="#heart-small" transform="translate(8.5,24.5)"/>
    <use xlink:href="#heart-small" transform="translate(70.5,98.5)"/>
    <use transform="translate(23.5,21.5)" xlink:href="#heart-large"/>
    <use transform="translate(23.5,101.5)" xlink:href="#heart-large"/>
    <use transform="translate(55.5,21.5)" xlink:href="#heart-large"/>
    <use transform="translate(55.5,101.5)" xlink:href="#heart-large"/>
    <use transform="translate(23.5,61.5)" xlink:href="#heart-large"/>
    <use transform="translate(55.5,61.5)" xlink:href="#heart-large"/>
</g>
<g transform="translate(0, 2337)">
    <use xlink:href="#card-background"/>
    <use xlink:href="#num-7" stroke="#DF0000" x="1" y="-.5"/>
    <use xlink:href="#num-7" stroke="#DF0000" x="63" y="100.5"/>
    <use xlink:href="#heart-small" transform="translate(8.5,24.5)"/>
    <use xlink:href="#heart-small" transform="translate(70.5,98.5)"/>
    <use transform="translate(23.5,21.5)" xlink:href="#heart-large"/>
    <use transform="translate(23.5,101.5)" xlink:href="#heart-large"/>
    <use transform="translate(55.5,21.5)" xlink:href="#heart-large"/>
    <use transform="translate(55.5,101.5)" xlink:href="#heart-large"/>
    <use transform="translate(23.5,61.5)" xlink:href="#heart-large"/>
    <use transform="translate(55.5,61.5)" xlink:href="#heart-large"/>
    <use transform="translate(39.5,41.5)" xlink:href="#heart-large"/>
</g>
<g transform="translate(0, 2460)">
    <use xlink:href="#card-background"/>
    <use xlink:href="#num-8" stroke="#DF0000" x="1" y="-.5"/>
    <use xlink:href="#num-8" stroke="#DF0000" x="63" y="100.5"/>
    <use xlink:href="#heart-small" transform="translate(8.5,24.5)"/>
    <use xlink:href="#heart-small" transform="translate(70.5,98.5)"/>
    <use transform="translate(23.5,21.5)" xlink:href="#heart-large"/>
    <use transform="translate(23.5,101.5)" xlink:href="#heart-large"/>
    <use transform="translate(55.5,21.5)" xlink:href="#heart-large"/>
    <use transform="translate(55.5,101.5)" xlink:href="#heart-large"/>
    <use transform="translate(23.5,61.5)" xlink:href="#heart-large"/>
    <use transform="translate(55.5,61.5)" xlink:href="#heart-large"/>
    <use transform="translate(39.5,41.5)" xlink:href="#heart-large"/>
    <use transform="translate(39.5,81.5)" xlink:href="#heart-large"/>
</g>
<g transform="translate(0, 2583)">
    <use xlink:href="#card-background"/>
    <use xlink:href="#num-9" stroke="#DF0000" x="1" y="-.5"/>
    <use xlink:href="#num-9" stroke="#DF0000" x="63" y="100.5"/>
    <use xlink:href="#heart-small" transform="translate(8.5,24.5)"/>
    <use xlink:href="#heart-small" transform="translate(70.5,98.5)"/>
    <use transform="translate(39.5,61.5)" xlink:href="#heart-large"/>
    <use transform="translate(23.5,21.5)" xlink:href="#heart-large"/>
    <use transform="translate(23.5,101.5)" xlink:href="#heart-large"/>
    <use transform="translate(55.5,21.5)" xlink:href="#heart-large"/>
    <use transform="translate(55.5,101.5)" xlink:href="#heart-large"/>
    <use transform="translate(23.5,48.25)" xlink:href="#heart-large"/>
    <use transform="translate(23.5,74.75)" xlink:href="#heart-large"/>
    <use transform="translate(55.5,48.25)" xlink:href="#heart-large"/>
    <use transform="translate(55.5,74.75)" xlink:href="#heart-large"/>
</g>
<g transform="translate(0, 2706)">
    <use xlink:href="#card-background"/>
    <use xlink:href="#num-10" stroke="#DF0000" x="1" y="-.5"/>
    <use xlink:href="#num-10" stroke="#DF0000" x="63" y="100.5"/>
    <use xlink:href="#heart-small" transform="translate(8.5,24.5)"/>
    <use xlink:href="#heart-small" transform="translate(70.5,98.5)"/>
    <use transform="translate(23.5,21.5)" xlink:href="#heart-large"/>
    <use transform="translate(23.5,101.5)" xlink:href="#heart-large"/>
    <use transform="translate(55.5,21.5)" xlink:href="#heart-large"/>
    <use transform="translate(55.5,101.5)" xlink:href="#heart-large"/>
    <use transform="translate(23.5,48.25)" xlink:href="#heart-large"/>
    <use transform="translate(23.5,74.75)" xlink:href="#heart-large"/>
    <use transform="translate(55.5,48.25)" xlink:href="#heart-large"/>
    <use transform="translate(55.5,74.75)" xlink:href="#heart-large"/>
    <use transform="translate(39.5,34.875)" xlink:href="#heart-large"/>
    <use transform="translate(39.5,88.125)" xlink:href="#heart-large"/>
</g>
<g transform="translate(0, 2829)">
    <use xlink:href="#card-background"/>
    <use xlink:href="#num-11" stroke="#DF0000" x="1" y="-.5"/>
    <use xlink:href="#num-11" stroke="#DF0000" x="63" y="100.5"/>
    <use xlink:href="#heart-small" transform="translate(8.5,24.5)"/>
    <use xlink:href="#heart-small" transform="translate(70.5,98.5)"/>
    <use xlink:href="#im-heart-11" x="15" y="13"/>
    <rect x="15.5" y="13.5" width="48" height="96" stroke-width="1" stroke="black" fill="none"/>
</g>
<g transform="translate(0, 2952)">
    <use xlink:href="#card-background"/>
    <use xlink:href="#num-12" stroke="#DF0000" x="1" y="-.5"/>
    <use xlink:href="#num-12" stroke="#DF0000" x="63" y="100.5"/>
    <use xlink:href="#heart-small" transform="translate(8.5,24.5)"/>
    <use xlink:href="#heart-small" transform="translate(70.5,98.5)"/>
    <use xlink:href="#im-heart-12" x="15" y="13"/>
    <rect x="15.5" y="13.5" width="48" height="96" stroke-width="1" stroke="black" fill="none"/>
</g>
<g transform="translate(0, 3075)">
    <use xlink:href="#card-background"/>
    <use xlink:href="#num-13" stroke="#DF0000" x="1" y="-.5"/>
    <use xlink:href="#num-13" stroke="#DF0000" x="63" y="100.5"/>
    <use xlink:href="#heart-small" transform="translate(8.5,24.5)"/>
    <use xlink:href="#heart-small" transform="translate(70.5,98.5)"/>
    <use xlink:href="#im-heart-13" x="15" y="13"/>
    <rect x="15.5" y="13.5" width="48" height="96" stroke-width="1" stroke="black" fill="none"/>
</g>
<g transform="translate(0, 3198)">
    <use xlink:href="#card-background"/>
    <use xlink:href="#num-1" stroke="#DF0000" x="1" y="-.5"/>
    <use xlink:href="#num-1" stroke="#DF0000" x="63" y="100.5"/>
    <use xlink:href="#diamond-small" transform="translate(8.5,24.5)"/>
    <use xlink:href="#diamond-small" transform="translate(70.5,98.5)"/>
    <use transform="translate(39.5,61.5)" xlink:href="#diamond-large"/>
</g>
<g transform="translate(0, 3321)">
    <use xlink:href="#card-background"/>
    <use xlink:href="#num-2" stroke="#DF0000" x="1" y="-.5"/>
    <use xlink:href="#num-2" stroke="#DF0000" x="63" y="100.5"/>
    <use xlink:href="#diamond-small" transform="translate(8.5,24.5)"/>
    <use xlink:href="#diamond-small" transform="translate(70.5,98.5)"/>
    <use transform="translate(39.5,21.5)" xlink:href="#diamond-large"/>
    <use transform="translate(39.5,101.5)" xlink:href="#diamond-large"/>
</g>
<g transform="translate(0, 3444)">
    <use xlink:href="#card-background"/>
    <use xlink:href="#num-3" stroke="#DF0000" x="1" y="-.5"/>
    <use xlink:href="#num-3" stroke="#DF0000" x="63" y="100.5"/>
    <use xlink:href="#diamond-small" transform="translate(8.5,24.5)"/>
    <use xlink:href="#diamond-small" transform="translate(70.5,98.5)"/>
    <use transform="translate(39.5,61.5)" xlink:href="#diamond-large"/>
    <use transform="translate(39.5,21.5)" xlink:href="#diamond-large"/>
    <use transform="translate(39.5,101.5)" xlink:href="#diamond-large"/>
</g>
<g transform="translate(0, 3567)">
    <use xlink:href="#card-background"/>
    <use xlink:href="#num-4" stroke="#DF0000" x="1" y="-.5"/>
    <use xlink:href="#num-4" stroke="#DF0000" x="63" y="100.5"/>
    <use xlink:href="#diamond-small" transform="translate(8.5,24.5)"/>
    <use xlink:href="#diamond-small" transform="translate(70.5,98.5)"/>
    <use transform="translate(23.5,21.5)" xlink:href="#diamond-large"/>
    <use transform="translate(23.5,101.5)" xlink:href="#diamond-large"/>
    <use transform="translate(55.5,21.5)" xlink:href="#diamond-large"/>
    <use transform="translate(55.5,101.5)" xlink:href="#diamond-large"/>
</g>
<g transform="translate(0, 3690)">
    <use xlink:href="#card-background"/>
    <use xlink:href="#num-5" stroke="#DF0000" x="1" y="-.5"/>
    <use xlink:href="#num-5" stroke="#DF0000" x="63" y="100.5"/>
    <use xlink:href="#diamond-small" transform="translate(8.5,24.5)"/>
    <use xlink:href="#diamond-small" transform="translate(70.5,98.5)"/>
    <use transform="translate(39.5,61.5)" xlink:href="#diamond-large"/>
    <use transform="translate(23.5,21.5)" xlink:href="#diamond-large"/>
    <use transform="translate(23.5,101.5)" xlink:href="#diamond-large"/>
    <use transform="translate(55.5,21.5)" xlink:href="#diamond-large"/>
    <use transform="translate(55.5,101.5)" xlink:href="#diamond-large"/>
</g>
<g transform="translate(0, 3813)">
    <use xlink:href="#card-background"/>
    <use xlink:href="#num-6" stroke="#DF0000" x="1" y="-.5"/>
    <use xlink:href="#num-6" stroke="#DF0000" x="63" y="100.5"/>
    <use xlink:href="#diamond-small" transform="translate(8.5,24.5)"/>
    <use xlink:href="#diamond-small" transform="translate(70.5,98.5)"/>
    <use transform="translate(23.5,21.5)" xlink:href="#diamond-large"/>
    <use transform="translate(23.5,101.5)" xlink:href="#diamond-large"/>
    <use transform="translate(55.5,21.5)" xlink:href="#diamond-large"/>
    <use transform="translate(55.5,101.5)" xlink:href="#diamond-large"/>
    <use transform="translate(23.5,61.5)" xlink:href="#diamond-large"/>
    <use transform="translate(55.5,61.5)" xlink:href="#diamond-large"/>
</g>
<g transform="translate(0, 3936)">
    <use xlink:href="#card-background"/>
    <use xlink:href="#num-7" stroke="#DF0000" x="1" y="-.5"/>
    <use xlink:href="#num-7" stroke="#DF0000" x="63" y="100.5"/>
    <use xlink:href="#diamond-small" transform="translate(8.5,24.5)"/>
    <use xlink:href="#diamond-small" transform="translate(70.5,98.5)"/>
    <use transform="translate(23.5,21.5)" xlink:href="#diamond-large"/>
    <use transform="translate(23.5,101.5)" xlink:href="#diamond-large"/>
    <use transform="translate(55.5,21.5)" xlink:href="#diamond-large"/>
    <use transform="translate(55.5,101.5)" xlink:href="#diamond-large"/>
    <use transform="translate(23.5,61.5)" xlink:href="#diamond-large"/>
    <use transform="translate(55.5,61.5)" xlink:href="#diamond-large"/>
    <use transform="translate(39.5,41.5)" xlink:href="#diamond-large"/>
</g>
<g transform="translate(0, 4059)">
    <use xlink:href="#card-background"/>
    <use xlink:href="#num-8" stroke="#DF0000" x="1" y="-.5"/>
    <use xlink:href="#num-8" stroke="#DF0000" x="63" y="100.5"/>
    <use xlink:href="#diamond-small" transform="translate(8.5,24.5)"/>
    <use xlink:href="#diamond-small" transform="translate(70.5,98.5)"/>
    <use transform="translate(23.5,21.5)" xlink:href="#diamond-large"/>
    <use transform="translate(23.5,101.5)" xlink:href="#diamond-large"/>
    <use transform="translate(55.5,21.5)" xlink:href="#diamond-large"/>
    <use transform="translate(55.5,101.5)" xlink:href="#diamond-large"/>
    <use transform="translate(23.5,61.5)" xlink:href="#diamond-large"/>
    <use transform="translate(55.5,61.5)" xlink:href="#diamond-large"/>
    <use transform="translate(39.5,41.5)" xlink:href="#diamond-large"/>
    <use transform="translate(39.5,81.5)" xlink:href="#diamond-large"/>
</g>
<g transform="translate(0, 4182)">
    <use xlink:href="#card-background"/>
    <use xlink:href="#num-9" stroke="#DF0000" x="1" y="-.5"/>
    <use xlink:href="#num-9" stroke="#DF0000" x="63" y="100.5"/>
    <use xlink:href="#diamond-small" transform="translate(8.5,24.5)"/>
    <use xlink:href="#diamond-small" transform="translate(70.5,98.5)"/>
    <use transform="translate(39.5,61.5)" xlink:href="#diamond-large"/>
    <use transform="translate(23.5,21.5)" xlink:href="#diamond-large"/>
    <use transform="translate(23.5,101.5)" xlink:href="#diamond-large"/>
    <use transform="translate(55.5,21.5)" xlink:href="#diamond-large"/>
    <use transform="translate(55.5,101.5)" xlink:href="#diamond-large"/>
    <use transform="translate(23.5,48.25)" xlink:href="#diamond-large"/>
    <use transform="translate(23.5,74.75)" xlink:href="#diamond-large"/>
    <use transform="translate(55.5,48.25)" xlink:href="#diamond-large"/>
    <use transform="translate(55.5,74.75)" xlink:href="#diamond-large"/>
</g>
<g transform="translate(0, 4305)">
    <use xlink:href="#card-background"/>
    <use xlink:href="#num-10" stroke="#DF0000" x="1" y="-.5"/>
    <use xlink:href="#num-10" stroke="#DF0000" x="63" y="100.5"/>
    <use xlink:href="#diamond-small" transform="translate(8.5,24.5)"/>
    <use xlink:href="#diamond-small" transform="translate(70.5,98.5)"/>
    <use transform="translate(23.5,21.5)" xlink:href="#diamond-large"/>
    <use transform="translate(23.5,101.5)" xlink:href="#diamond-large"/>
    <use transform="translate(55.5,21.5)" xlink:href="#diamond-large"/>
    <use transform="translate(55.5,101.5)" xlink:href="#diamond-large"/>
    <use transform="translate(23.5,48.25)" xlink:href="#diamond-large"/>
    <use transform="translate(23.5,74.75)" xlink:href="#diamond-large"/>
    <use transform="translate(55.5,48.25)" xlink:href="#diamond-large"/>
    <use transform="translate(55.5,74.75)" xlink:href="#diamond-large"/>
    <use transform="translate(39.5,34.875)" xlink:href="#diamond-large"/>
    <use transform="translate(39.5,88.125)" xlink:href="#diamond-large"/>
</g>
<g transform="translate(0, 4428)">
    <use xlink:href="#card-background"/>
    <use xlink:href="#num-11" stroke="#DF0000" x="1" y="-.5"/>
    <use xlink:href="#num-11" stroke="#DF0000" x="63" y="100.5"/>
    <use xlink:href="#diamond-small" transform="translate(8.5,24.5)"/>
    <use xlink:href="#diamond-small" transform="translate(70.5,98.5)"/>
    <use xlink:href="#im-diamond-11" x="15" y="13"/>
    <rect x="15.5" y="13.5" width="48" height="96" stroke-width="1" stroke="black" fill="none"/>
</g>
<g transform="translate(0, 4551)">
    <use xlink:href="#card-background"/>
    <use xlink:href="#num-12" stroke="#DF0000" x="1" y="-.5"/>
    <use xlink:href="#num-12" stroke="#DF0000" x="63" y="100.5"/>
    <use xlink:href="#diamond-small" transform="translate(8.5,24.5)"/>
    <use xlink:href="#diamond-small" transform="translate(70.5,98.5)"/>
    <use xlink:href="#im-diamond-12" x="15" y="13"/>
    <rect x="15.5" y="13.5" width="48" height="96" stroke-width="1" stroke="black" fill="none"/>
</g>
<g transform="translate(0, 4674)">
    <use xlink:href="#card-background"/>
    <use xlink:href="#num-13" stroke="#DF0000" x="1" y="-.5"/>
    <use xlink:href="#num-13" stroke="#DF0000" x="63" y="100.5"/>
    <use xlink:href="#diamond-small" transform="translate(8.5,24.5)"/>
    <use xlink:href="#diamond-small" transform="translate(70.5,98.5)"/>
    <use xlink:href="#im-diamond-13" x="15" y="13"/>
    <rect x="15.5" y="13.5" width="48" height="96" stroke-width="1" stroke="black" fill="none"/>
</g>
<g transform="translate(0, 4797)">
    <use xlink:href="#card-background"/>
    <use xlink:href="#num-1" stroke="black" x="1" y="-.5"/>
    <use xlink:href="#num-1" stroke="black" x="63" y="100.5"/>
    <use xlink:href="#club-small" transform="translate(8.5,24.5)"/>
    <use xlink:href="#club-small" transform="translate(70.5,98.5)"/>
    <use transform="translate(39.5,61.5)" xlink:href="#club-large"/>
</g>
<g transform="translate(0, 4920)">
    <use xlink:href="#card-background"/>
    <use xlink:href="#num-2" stroke="black" x="1" y="-.5"/>
    <use xlink:href="#num-2" stroke="black" x="63" y="100.5"/>
    <use xlink:href="#club-small" transform="translate(8.5,24.5)"/>
    <use xlink:href="#club-small" transform="translate(70.5,98.5)"/>
    <use transform="translate(39.5,21.5)" xlink:href="#club-large"/>
    <use transform="translate(39.5,101.5)" xlink:href="#club-large"/>
</g>
<g transform="translate(0, 5043)">
    <use xlink:href="#card-background"/>
    <use xlink:href="#num-3" stroke="black" x="1" y="-.5"/>
    <use xlink:href="#num-3" stroke="black" x="63" y="100.5"/>
    <use xlink:href="#club-small" transform="translate(8.5,24.5)"/>
    <use xlink:href="#club-small" transform="translate(70.5,98.5)"/>
    <use transform="translate(39.5,61.5)" xlink:href="#club-large"/>
    <use transform="translate(39.5,21.5)" xlink:href="#club-large"/>
    <use transform="translate(39.5,101.5)" xlink:href="#club-large"/>
</g>
<g transform="translate(0, 5166)">
    <use xlink:href="#card-background"/>
    <use xlink:href="#num-4" stroke="black" x="1" y="-.5"/>
    <use xlink:href="#num-4" stroke="black" x="63" y="100.5"/>
    <use xlink:href="#club-small" transform="translate(8.5,24.5)"/>
    <use xlink:href="#club-small" transform="translate(70.5,98.5)"/>
    <use transform="translate(23.5,21.5)" xlink:href="#club-large"/>
    <use transform="translate(23.5,101.5)" xlink:href="#club-large"/>
    <use transform="translate(55.5,21.5)" xlink:href="#club-large"/>
    <use transform="translate(55.5,101.5)" xlink:href="#club-large"/>
</g>
<g transform="translate(0, 5289)">
    <use xlink:href="#card-background"/>
    <use xlink:href="#num-5" stroke="black" x="1" y="-.5"/>
    <use xlink:href="#num-5" stroke="black" x="63" y="100.5"/>
    <use xlink:href="#club-small" transform="translate(8.5,24.5)"/>
    <use xlink:href="#club-small" transform="translate(70.5,98.5)"/>
    <use transform="translate(39.5,61.5)" xlink:href="#club-large"/>
    <use transform="translate(23.5,21.5)" xlink:href="#club-large"/>
    <use transform="translate(23.5,101.5)" xlink:href="#club-large"/>
    <use transform="translate(55.5,21.5)" xlink:href="#club-large"/>
    <use transform="translate(55.5,101.5)" xlink:href="#club-large"/>
</g>
<g transform="translate(0, 5412)">
    <use xlink:href="#card-background"/>
    <use xlink:href="#num-6" stroke="black" x="1" y="-.5"/>
    <use xlink:href="#num-6" stroke="black" x="63" y="100.5"/>
    <use xlink:href="#club-small" transform="translate(8.5,24.5)"/>
    <use xlink:href="#club-small" transform="translate(70.5,98.5)"/>
    <use transform="translate(23.5,21.5)" xlink:href="#club-large"/>
    <use transform="translate(23.5,101.5)" xlink:href="#club-large"/>
    <use transform="translate(55.5,21.5)" xlink:href="#club-large"/>
    <use transform="translate(55.5,101.5)" xlink:href="#club-large"/>
    <use transform="translate(23.5,61.5)" xlink:href="#club-large"/>
    <use transform="translate(55.5,61.5)" xlink:href="#club-large"/>
</g>
<g transform="translate(0, 5535)">
    <use xlink:href="#card-background"/>
    <use xlink:href="#num-7" stroke="black" x="1" y="-.5"/>
    <use xlink:href="#num-7" stroke="black" x="63" y="100.5"/>
    <use xlink:href="#club-small" transform="translate(8.5,24.5)"/>
    <use xlink:href="#club-small" transform="translate(70.5,98.5)"/>
    <use transform="translate(23.5,21.5)" xlink:href="#club-large"/>
    <use transform="translate(23.5,101.5)" xlink:href="#club-large"/>
    <use transform="translate(55.5,21.5)" xlink:href="#club-large"/>
    <use transform="translate(55.5,101.5)" xlink:href="#club-large"/>
    <use transform="translate(23.5,61.5)" xlink:href="#club-large"/>
    <use transform="translate(55.5,61.5)" xlink:href="#club-large"/>
    <use transform="translate(39.5,41.5)" xlink:href="#club-large"/>
</g>
<g transform="translate(0, 5658)">
    <use xlink:href="#card-background"/>
    <use xlink:href="#num-8" stroke="black" x="1" y="-.5"/>
    <use xlink:href="#num-8" stroke="black" x="63" y="100.5"/>
    <use xlink:href="#club-small" transform="translate(8.5,24.5)"/>
    <use xlink:href="#club-small" transform="translate(70.5,98.5)"/>
    <use transform="translate(23.5,21.5)" xlink:href="#club-large"/>
    <use transform="translate(23.5,101.5)" xlink:href="#club-large"/>
    <use transform="translate(55.5,21.5)" xlink:href="#club-large"/>
    <use transform="translate(55.5,101.5)" xlink:href="#club-large"/>
    <use transform="translate(23.5,61.5)" xlink:href="#club-large"/>
    <use transform="translate(55.5,61.5)" xlink:href="#club-large"/>
    <use transform="translate(39.5,41.5)" xlink:href="#club-large"/>
    <use transform="translate(39.5,81.5)" xlink:href="#club-large"/>
</g>
<g transform="translate(0, 5781)">
    <use xlink:href="#card-background"/>
    <use xlink:href="#num-9" stroke="black" x="1" y="-.5"/>
    <use xlink:href="#num-9" stroke="black" x="63" y="100.5"/>
    <use xlink:href="#club-small" transform="translate(8.5,24.5)"/>
    <use xlink:href="#club-small" transform="translate(70.5,98.5)"/>
    <use transform="translate(39.5,61.5)" xlink:href="#club-large"/>
    <use transform="translate(23.5,21.5)" xlink:href="#club-large"/>
    <use transform="translate(23.5,101.5)" xlink:href="#club-large"/>
    <use transform="translate(55.5,21.5)" xlink:href="#club-large"/>
    <use transform="translate(55.5,101.5)" xlink:href="#club-large"/>
    <use transform="translate(23.5,48.25)" xlink:href="#club-large"/>
    <use transform="translate(23.5,74.75)" xlink:href="#club-large"/>
    <use transform="translate(55.5,48.25)" xlink:href="#club-large"/>
    <use transform="translate(55.5,74.75)" xlink:href="#club-large"/>
</g>
<g transform="translate(0, 5904)">
    <use xlink:href="#card-background"/>
    <use xlink:href="#num-10" stroke="black" x="1" y="-.5"/>
    <use xlink:href="#num-10" stroke="black" x="63" y="100.5"/>
    <use xlink:href="#club-small" transform="translate(8.5,24.5)"/>
    <use xlink:href="#club-small" transform="translate(70.5,98.5)"/>
    <use transform="translate(23.5,21.5)" xlink:href="#club-large"/>
    <use transform="translate(23.5,101.5)" xlink:href="#club-large"/>
    <use transform="translate(55.5,21.5)" xlink:href="#club-large"/>
    <use transform="translate(55.5,101.5)" xlink:href="#club-large"/>
    <use transform="translate(23.5,48.25)" xlink:href="#club-large"/>
    <use transform="translate(23.5,74.75)" xlink:href="#club-large"/>
    <use transform="translate(55.5,48.25)" xlink:href="#club-large"/>
    <use transform="translate(55.5,74.75)" xlink:href="#club-large"/>
    <use transform="translate(39.5,34.875)" xlink:href="#club-large"/>
    <use transform="translate(39.5,88.125)" xlink:href="#club-large"/>
</g>
<g transform="translate(0, 6027)">
    <use xlink:href="#card-background"/>
    <use xlink:href="#num-11" stroke="black" x="1" y="-.5"/>
    <use xlink:href="#num-11" stroke="black" x="63" y="100.5"/>
    <use xlink:href="#club-small" transform="translate(8.5,24.5)"/>
    <use xlink:href="#club-small" transform="translate(70.5,98.5)"/>
    <use xlink:href="#im-club-11" x="15" y="13"/>
    <rect x="15.5" y="13.5" width="48" height="96" stroke-width="1" stroke="black" fill="none"/>
</g>
<g transform="translate(0, 6150)">
    <use xlink:href="#card-background"/>
    <use xlink:href="#num-12" stroke="black" x="1" y="-.5"/>
    <use xlink:href="#num-12" stroke="black" x="63" y="100.5"/>
    <use xlink:href="#club-small" transform="translate(8.5,24.5)"/>
    <use xlink:href="#club-small" transform="translate(70.5,98.5)"/>
    <use xlink:href="#im-club-12" x="15" y="13"/>
    <rect x="15.5" y="13.5" width="48" height="96" stroke-width="1" stroke="black" fill="none"/>
</g>
<g transform="translate(0, 6273)">
    <use xlink:href="#card-background"/>
    <use xlink:href="#num-13" stroke="black" x="1" y="-.5"/>
    <use xlink:href="#num-13" stroke="black" x="63" y="100.5"/>
    <use xlink:href="#club-small" transform="translate(8.5,24.5)"/>
    <use xlink:href="#club-small" transform="translate(70.5,98.5)"/>
    <use xlink:href="#im-club-13" x="15" y="13"/>
    <rect x="15.5" y="13.5" width="48" height="96" stroke-width="1" stroke="black" fill="none"/>
</g>
<g transform="translate(0, 6396)">
    <use xlink:href="#card-background"/>
    <use xlink:href="#im-card-back" x="6" y="6.5"/>
</g>
</svg>